<svg width="339" height="257" viewBox="0 0 339 257" fill="none" xmlns="http://www.w3.org/2000/svg">
<g id="hashTag">
<path id="Vector" d="M243.032 145.032L245.282 118.142H191.382L189.382 140.962C189.351 141.29 189.249 141.608 189.082 141.892C189.01 142.017 188.927 142.134 188.832 142.242V142.512H189.032L184.492 196.752L181.762 229.502C181.411 232.958 181.794 236.449 182.888 239.747C183.981 243.044 185.759 246.073 188.106 248.634C190.453 251.195 193.315 253.231 196.505 254.608C199.694 255.984 203.139 256.671 206.612 256.622C221.532 256.622 234.762 244.422 236.002 229.502L238.952 194.232C243.827 192.067 248.043 188.652 251.171 184.331C254.299 180.01 256.228 174.939 256.762 169.632C257.262 164.624 256.217 159.582 253.768 155.185C251.319 150.787 247.583 147.244 243.062 145.032" fill="#EA483B"/>
<g id="Mask group">
<mask id="mask0_28_20" style="mask-type:alpha" maskUnits="userSpaceOnUse" x="167" y="31" width="172" height="115">
<path id="clip-path" d="M198.663 58.8223L195.923 91.5723H172.413L167.812 145.812H309.453C324.363 145.812 337.592 133.612 338.842 118.692C339.192 115.24 338.808 111.753 337.717 108.459C336.625 105.165 334.85 102.139 332.508 99.5789C330.166 97.0186 327.309 94.9819 324.125 93.6022C320.942 92.2224 317.502 91.5307 314.033 91.5723H250.173L252.902 58.8223C253.253 55.3649 252.867 51.8725 251.772 48.5745C250.677 45.2765 248.897 42.2474 246.548 39.6862C244.199 37.125 241.335 35.0896 238.144 33.7136C234.953 32.3376 231.507 31.6521 228.033 31.7023C213.123 31.7023 199.892 43.9123 198.652 58.8223" fill="white"/>
</mask>
<g mask="url(#mask0_28_20)">
<g id="Group">
<path id="Vector_2" d="M340.082 0.00219727H167.812V114.112H340.082V0.00219727Z" fill="url(#paint0_linear_28_20)"/>
</g>
</g>
</g>
<path id="Vector_3" d="M107.032 114.112H108.712L106.712 138.482H160.962L162.962 114.112L167.502 59.8722L168.732 45.0422L170.232 27.1222C170.584 23.6678 170.201 20.1783 169.108 16.8824C168.016 13.5865 166.239 10.5587 163.895 7.99783C161.55 5.43691 158.69 3.40066 155.503 2.02269C152.316 0.644716 148.874 -0.0438513 145.402 0.00216317C130.492 0.00216317 117.262 12.2022 116.022 27.1222L113.282 59.8722H111.602C96.6922 59.8722 83.4622 72.0722 82.2122 86.9922C81.8626 90.4453 82.2465 93.9334 83.3387 97.2279C84.4309 100.522 86.2068 103.549 88.5501 106.109C90.8934 108.67 93.7511 110.706 96.9362 112.085C100.121 113.464 103.562 114.155 107.032 114.112" fill="#EA483B"/>
<path id="Vector_4" d="M183.662 142.542H163.032H162.762H29.5124C14.6024 142.542 1.37242 154.742 0.122421 169.662C-0.223616 173.121 0.165945 176.613 1.26552 179.91C2.36509 183.208 4.14979 186.235 6.50239 188.793C8.855 191.352 11.7223 193.384 14.9159 194.755C18.1095 196.127 21.5571 196.808 25.0324 196.752H101.892L99.1124 229.502C98.7609 232.958 99.1444 236.45 100.238 239.747C101.331 243.044 103.11 246.073 105.457 248.634C107.803 251.195 110.666 253.231 113.855 254.608C117.044 255.985 120.489 256.671 123.962 256.622C138.882 256.622 152.112 244.422 153.352 229.502L156.092 196.752H179.032L183.672 143.032L183.662 142.542Z" fill="#F8BE17"/>
</g>
<defs>
<linearGradient id="paint0_linear_28_20" x1="-17265.9" y1="89.9619" x2="293.336" y2="89.9619" gradientUnits="userSpaceOnUse">
<stop stop-color="#9B83BC"/>
<stop offset="1" stop-color="#5A9FD6"/>
</linearGradient>
</defs>
</svg>
